P2
6 5
250
187 113 182 158 149 16 
194 51 86 48 67 113 
3 159 49 44 249 146 
2 184 161 35 197 86 
76 188 68 159 20 7 
