P2
6 5
250
93 97 68 246 74 101 
107 164 36 126 16 85 
220 122 180 17 121 117 
37 192 57 100 166 134 
179 16 144 200 31 159 
