P2
6 5
250
250 156 250 151 179 177 
110 247 67 33 189 206 26 178 5 63 57 177 
118 138 172 247 43 63 
136 9 224 76 212 170 
