P2
6 5
250
39 165 81 101 213 32 
206 158 148 164 76 85 
169 211 109 194 214 215 
101 13 10 37 148 128 
40 170 141 134 194 15 
