P2
2 2
255

50 0
50 0