P2
2 2
255

50 50
50 0
