P2
2 2
255

50 25
50 25